<svg xmlns="http://www.w3.org/2000/svg" width="267" height="54" viewBox="0 0 267 54" fill="none"><path d="M0 27.0295C0 12.2214 12.0044 0.21698 26.8125 0.21698H239.396C254.204 0.21698 266.208 12.2214 266.208 27.0295C266.208 41.8376 254.204 53.842 239.396 53.842H26.8125C12.0044 53.842 0 41.8376 0 27.0295Z" fill="#B16E67"></path><path d="M44.6563 32.9815V21.3092H42.6543V32.9815H44.6563Z" fill="#F0E6DB"></path><path d="M58.6505 21.3092V29.4065H58.6326L51.8937 21.3092H50.1241V32.9815H52.1261V24.8842H52.144L58.8828 32.9815H60.6525V21.3092H58.6505Z" fill="#F0E6DB"></path><path d="M75.6037 22.6498C74.6742 21.9169 72.69 20.9517 70.2233 20.9517C68.0783 20.9517 65.5222 21.7739 65.5222 24.5445C65.5222 27.3688 68.4537 27.5833 71.0277 27.762C73.0654 27.9229 74.406 28.2268 74.406 29.6925C74.406 31.0153 73.0297 31.6052 71.2958 31.6052C68.686 31.6052 67.0415 30.3539 66.0942 29.4959L64.8787 30.8902C66.1835 32.0699 68.1855 33.339 71.26 33.339C74.0485 33.339 76.408 32.2487 76.408 29.4244C76.408 26.1712 73.119 25.9567 71.0277 25.8137C69.258 25.6885 67.5242 25.6349 67.5242 24.3658C67.5242 23.1324 68.7575 22.6855 70.1518 22.6855C72.2968 22.6855 73.7447 23.4542 74.3882 24.044L75.6037 22.6498Z" fill="#F0E6DB"></path><path d="M90.4815 29.5853C89.4805 30.6578 87.9254 31.5515 86.1021 31.5515C83.4924 31.5515 81.7943 29.5853 81.7943 27.1543C81.7943 24.7412 83.4566 22.7392 86.0128 22.7392C87.4428 22.7392 89.0515 23.3648 90.0883 24.3479L91.4468 23.0073C90.1419 21.7918 88.1041 20.9517 85.977 20.9517C82.2411 20.9517 79.685 23.758 79.685 27.1364C79.685 30.5684 82.2233 33.339 86.0664 33.339C88.6046 33.339 90.5709 32.1593 91.8222 30.908L90.4815 29.5853Z" fill="#F0E6DB"></path><path d="M97.9441 32.9815V28.4949H102.091L104.594 32.9815H106.899L104.111 28.2268C105.648 27.6548 106.685 26.4572 106.685 24.8842C106.685 23.9904 106.345 23.1682 105.755 22.5425C105.005 21.7382 103.932 21.3092 102.377 21.3092H95.9421V32.9815H97.9441ZM102.377 23.0967C103.003 23.0967 103.646 23.1503 104.2 23.7223C104.504 24.044 104.683 24.4373 104.683 24.8842C104.683 25.8852 103.789 26.7074 102.735 26.7074H97.9441V23.0967H102.377Z" fill="#F0E6DB"></path><path d="M117.86 25.9924H113.374V23.0967H120.846V21.3092H111.372V32.9815H121.275V31.194H113.374V27.7799H117.86V25.9924Z" fill="#F0E6DB"></path><path d="M134.41 21.3092L130.371 30.4254H130.263L126.224 21.3092H123.936L129.352 32.9815H131.175L136.591 21.3092H134.41Z" fill="#F0E6DB"></path><path d="M137.9 32.9815H139.991L141.385 29.8355H146.945L148.357 32.9815H150.555L145.139 21.3092H143.316L137.9 32.9815ZM144.12 23.7044H144.228L146.23 28.2268H142.1L144.12 23.7044Z" fill="#F0E6DB"></path><path d="M153.173 29.335H157.767V27.5118H153.173V29.335Z" fill="#F0E6DB"></path><path d="M171.428 22.6498C170.498 21.9169 168.514 20.9517 166.047 20.9517C163.902 20.9517 161.346 21.7739 161.346 24.5445C161.346 27.3688 164.278 27.5833 166.852 27.762C168.889 27.9229 170.23 28.2268 170.23 29.6925C170.23 31.0153 168.854 31.6052 167.12 31.6052C164.51 31.6052 162.866 30.3539 161.918 29.4959L160.703 30.8902C162.008 32.0699 164.01 33.339 167.084 33.339C169.873 33.339 172.232 32.2487 172.232 29.4244C172.232 26.1712 168.943 25.9567 166.852 25.8137C165.082 25.6885 163.348 25.6349 163.348 24.3658C163.348 23.1324 164.582 22.6855 165.976 22.6855C168.121 22.6855 169.569 23.4542 170.212 24.044L171.428 22.6498Z" fill="#F0E6DB"></path><path d="M183.034 25.9924H178.548V23.0967H186.02V21.3092H176.546V32.9815H186.449V31.194H178.548V27.7799H183.034V25.9924Z" fill="#F0E6DB"></path><path d="M217.576 27.0295C217.576 15.3098 227.077 5.80908 238.797 5.80908C250.516 5.80908 260.017 15.3098 260.017 27.0295C260.017 38.7491 250.516 48.2498 238.797 48.2498C227.077 48.2498 217.576 38.7491 217.576 27.0295Z" fill="#F0E6DB"></path><path d="M207.57 26.4212C207.234 26.4212 206.961 26.6941 206.961 27.0307C206.961 27.3673 207.234 27.6402 207.57 27.6402L207.57 26.4212ZM244.865 27.6395C245.201 27.6395 245.474 27.3666 245.474 27.03C245.474 26.6934 245.201 26.4205 244.865 26.4205L244.865 27.6395ZM235.486 17.205C235.486 16.8684 235.213 16.5955 234.877 16.5955C234.54 16.5955 234.267 16.8684 234.267 17.205L235.486 17.205ZM245.946 27.035L245.946 27.6444C246.282 27.6444 246.555 27.3716 246.555 27.035C246.555 26.6983 246.282 26.4255 245.946 26.4255L245.946 27.035ZM234.267 36.8649C234.267 37.2015 234.54 37.4744 234.877 37.4744C235.213 37.4744 235.486 37.2015 235.486 36.8649L234.267 36.8649ZM207.57 27.6402L244.865 27.6395L244.865 26.4205L207.57 26.4212L207.57 27.6402ZM234.267 17.205C234.267 18.2745 234.694 19.4571 235.359 20.5986C236.03 21.75 236.973 22.9091 238.073 23.9427C240.254 25.9915 243.164 27.6445 245.946 27.6444L245.946 26.4255C243.605 26.4255 240.981 25.0014 238.908 23.0542C237.881 22.0898 237.017 21.0212 236.413 19.9848C235.803 18.9387 235.486 17.9735 235.486 17.205L234.267 17.205ZM245.946 26.4255C243.143 26.4255 240.232 28.0984 238.057 30.1561C236.959 31.1943 236.021 32.3553 235.354 33.5026C234.692 34.6392 234.267 35.8129 234.267 36.8649L235.486 36.8649C235.486 36.1156 235.8 35.1598 236.407 34.1156C237.009 33.082 237.87 32.0108 238.895 31.0417C240.963 29.0851 243.587 27.6444 245.946 27.6444L245.946 26.4255Z" fill="#B16E67"></path></svg>