<svg xmlns="http://www.w3.org/2000/svg" width="100" height="67" viewBox="0 0 100 67" fill="none"><path fill-rule="evenodd" clip-rule="evenodd" d="M99.7031 33.3703L78.1358 54.9934C62.7865 70.3824 37.2126 70.3824 21.8633 54.9934L0.295928 33.3703L21.8633 11.7472C37.2126 -3.64174 62.7865 -3.64174 78.1358 11.7472L99.7031 33.3703ZM98.2959 33.3703L77.4303 12.4508C62.4704 -2.54785 37.5287 -2.54785 22.5687 12.4508L1.70312 33.3703L22.5687 54.2899C37.5287 69.2885 62.4704 69.2885 77.4303 54.2899L98.2959 33.3703Z" fill="#D0A8A4"></path><path fill-rule="evenodd" clip-rule="evenodd" d="M49.9992 27.5732C46.7976 27.5732 44.2021 30.1686 44.2021 33.3702C44.2021 36.5718 46.7976 39.1673 49.9992 39.1673C53.2008 39.1673 55.7962 36.5718 55.7962 33.3702C55.7962 30.1686 53.2008 27.5732 49.9992 27.5732ZM43.2021 33.3702C43.2021 29.6164 46.2453 26.5732 49.9992 26.5732C53.753 26.5732 56.7962 29.6164 56.7962 33.3702C56.7962 37.1241 53.753 40.1673 49.9992 40.1673C46.2453 40.1673 43.2021 37.1241 43.2021 33.3702Z" fill="#B16E67"></path><path fill-rule="evenodd" clip-rule="evenodd" d="M49.999 19.0168C50.2752 19.0168 50.499 19.2407 50.499 19.5168V22.0356C50.499 22.3118 50.2752 22.5356 49.999 22.5356C49.7229 22.5356 49.499 22.3118 49.499 22.0356V19.5168C49.499 19.2407 49.7229 19.0168 49.999 19.0168Z" fill="#B16E67"></path><path fill-rule="evenodd" clip-rule="evenodd" d="M49.999 44.2048C50.2752 44.2048 50.499 44.4287 50.499 44.7048V47.2236C50.499 47.4997 50.2752 47.7236 49.999 47.7236C49.7229 47.7236 49.499 47.4997 49.499 47.2236V44.7048C49.499 44.4287 49.7229 44.2048 49.999 44.2048Z" fill="#B16E67"></path><path fill-rule="evenodd" clip-rule="evenodd" d="M39.8466 23.2187C40.0419 23.0235 40.3585 23.0235 40.5537 23.2187L42.3421 25.0071C42.5374 25.2024 42.5374 25.5189 42.3421 25.7142C42.1468 25.9095 41.8303 25.9095 41.635 25.7142L39.8466 23.9258C39.6514 23.7306 39.6514 23.414 39.8466 23.2187Z" fill="#B16E67"></path><path fill-rule="evenodd" clip-rule="evenodd" d="M57.6552 41.0263C57.8505 40.8311 58.1671 40.8311 58.3623 41.0263L60.1507 42.8147C60.346 43.0099 60.346 43.3265 60.1507 43.5218C59.9554 43.717 59.6388 43.717 59.4436 43.5218L57.6552 41.7334C57.46 41.5382 57.46 41.2216 57.6552 41.0263Z" fill="#B16E67"></path><path fill-rule="evenodd" clip-rule="evenodd" d="M35.6455 33.3702C35.6455 33.0941 35.8694 32.8702 36.1455 32.8702H38.6643C38.9405 32.8702 39.1643 33.0941 39.1643 33.3702C39.1643 33.6464 38.9405 33.8702 38.6643 33.8702H36.1455C35.8694 33.8702 35.6455 33.6464 35.6455 33.3702Z" fill="#B16E67"></path><path fill-rule="evenodd" clip-rule="evenodd" d="M60.834 33.3702C60.834 33.0941 61.0578 32.8702 61.334 32.8702H63.8528C64.1289 32.8702 64.3528 33.0941 64.3528 33.3702C64.3528 33.6464 64.1289 33.8702 63.8528 33.8702H61.334C61.0578 33.8702 60.834 33.6464 60.834 33.3702Z" fill="#B16E67"></path><path fill-rule="evenodd" clip-rule="evenodd" d="M42.3421 41.0263C42.5374 41.2216 42.5374 41.5382 42.3421 41.7334L40.5537 43.5218C40.3585 43.717 40.0419 43.717 39.8466 43.5218C39.6514 43.3265 39.6514 43.0099 39.8466 42.8147L41.635 41.0263C41.8303 40.8311 42.1468 40.8311 42.3421 41.0263Z" fill="#B16E67"></path><path fill-rule="evenodd" clip-rule="evenodd" d="M60.1507 23.2187C60.346 23.414 60.346 23.7306 60.1507 23.9258L58.3623 25.7142C58.1671 25.9095 57.8505 25.9095 57.6552 25.7142C57.46 25.5189 57.46 25.2024 57.6552 25.0071L59.4436 23.2187C59.6388 23.0235 59.9554 23.0235 60.1507 23.2187Z" fill="#B16E67"></path></svg>