<svg xmlns="http://www.w3.org/2000/svg" width="99" height="67" viewBox="0 0 99 67" fill="none"><path d="M77.0648 54.8076L98.2812 33.5363L77.0648 12.265C61.9101 -2.92882 36.6524 -2.92883 21.4977 12.265L0.281241 33.5363L21.4977 54.8076C36.6524 70.0014 61.9101 70.0014 77.0648 54.8076Z" fill="#FFFBF7"></path><path d="M63.1346 41.356C63.1346 42.024 62.8692 42.6647 62.3968 43.137C61.9244 43.6094 61.2838 43.8748 60.6158 43.8748H37.9465C37.2785 43.8748 36.6378 43.6094 36.1655 43.137C35.6931 42.6647 35.4277 42.024 35.4277 41.356V27.5026C35.4277 26.8345 35.6931 26.1939 36.1655 25.7215C36.6378 25.2491 37.2785 24.9838 37.9465 24.9838H42.9841L45.5029 21.2056H53.0593L55.5781 24.9838H60.6158C61.2838 24.9838 61.9244 25.2491 62.3968 25.7215C62.8692 26.1939 63.1346 26.8345 63.1346 27.5026V41.356Z" stroke="#B16E67" stroke-linecap="round" stroke-linejoin="round"></path><path d="M49.2808 38.8372C52.063 38.8372 54.3184 36.5818 54.3184 33.7996C54.3184 31.0174 52.063 28.762 49.2808 28.762C46.4986 28.762 44.2432 31.0174 44.2432 33.7996C44.2432 36.5818 46.4986 38.8372 49.2808 38.8372Z" stroke="#B16E67" stroke-linecap="round" stroke-linejoin="round"></path></svg>